<svg width="217" height="126" viewBox="0 0 217 126" fill="none" xmlns="http://www.w3.org/2000/svg">
<path d="M2.21118 20.8669H9.62202L22.087 35.6753H22.1844L34.6494 20.8669H41.958V53.1845H33.7632V33.719H33.6658L22.7249 46.7609H21.4492L10.5082 33.719H10.4108V53.1894H2.21118V20.8669Z" fill="#D33D8D"/>
<path d="M84.207 20.8669H97.7968C101.132 20.8669 103.44 21.1103 105.548 21.6018C112.565 23.2709 118.16 27.9767 118.16 36.5074C118.16 45.2377 112.273 49.7488 106.824 51.6613C103.046 52.985 98.7755 53.1796 94.997 53.1796H84.2021V20.8669H84.207ZM95.4937 46.2207C98.4395 46.2207 100.743 46.0261 102.656 45.4859C106.629 44.3569 109.77 41.3154 109.77 36.5123C109.77 31.7579 106.775 29.3052 103.44 28.3709C101.575 27.8307 99.6617 27.8307 96.5211 27.8307H92.4018V46.2207H95.4937Z" fill="#D33D8D"/>
<path d="M121.402 20.8669H146.522V27.8307H129.592V33.4222H144.998V40.3859H129.592V46.2207H146.814V53.1845H121.397V20.8669H121.402Z" fill="#D33D8D"/>
<path d="M150.301 20.8669H163.301C166.637 20.8669 169.139 21.2125 171.199 21.9959C175.221 23.5142 177.334 26.5557 177.334 31.0668C177.334 35.8748 174.291 39.1596 168.847 40.1378V40.2351C170.907 41.4127 171.939 44.7949 174.048 46.3667C174.734 46.8582 175.518 47.1502 176.453 47.1502C177.334 47.1502 178.172 46.9555 178.956 46.6587L180.426 52.839C178.756 53.4765 176.745 53.6711 175.226 53.6711C172.967 53.6711 171.155 53.131 169.631 52.2501C164.236 49.0627 163.009 41.7047 160.258 41.7047H158.491V53.1796H150.296V20.8669H150.301ZM162.668 35.14C164.485 35.14 165.809 34.9453 166.739 34.5512C168.307 33.9137 168.945 32.8333 168.945 31.3637C168.945 29.7967 168.307 28.8624 166.982 28.3222C166.101 27.9767 164.923 27.8307 163.204 27.8307H158.496V35.1351H162.668V35.14Z" fill="#D33D8D"/>
<path d="M181.658 20.8669H188.772L207.713 40.5319H207.81V20.8669H216.005V53.1845H209.232L189.95 33.028H189.853V53.1845H181.658V20.8669Z" fill="#D33D8D"/>
<path d="M2.21118 57.0337H27.8229V63.9975H10.4059V70.6693H26.3037V77.633H10.4059V89.3512H2.21118V57.0337Z" fill="#D33D8D"/>
<path d="M38.6708 56.8828H45.9794L61.9259 89.3463H52.7524L49.6118 82.5286H35.6276L32.8327 89.3463H23.9514L38.6708 56.8828ZM46.4225 75.667L42.3032 66.6447H42.2058L38.4761 75.667H46.4225Z" fill="#D33D8D"/>
<path d="M62.7632 57.0337H70.174L82.639 71.8421H82.7364L95.2014 57.0337H102.51V89.3512H94.3152V69.8809H94.2179L83.2769 82.9228H82.0012L71.0602 69.8809H70.9628V89.3512H62.7681V57.0337H62.7632Z" fill="#D33D8D"/>
<path d="M107.466 57.0337H115.661V89.3512H107.466V57.0337Z" fill="#D33D8D"/>
<path d="M120.618 57.0337H128.813V82.3875H144.954V89.3512H120.618V57.0337Z" fill="#D33D8D"/>
<path d="M151.873 77.3802L137.646 57.0291H147.019L156.046 70.4651H156.144L164.83 57.0291H173.955L160.068 77.3802V89.3466H151.873V77.3802Z" fill="#D33D8D"/>
<path d="M3.19416 116.34C6.23737 118.204 10.605 119.133 14.2812 119.133C18.941 119.133 21.3463 118.004 21.3463 115.897C21.3463 112.121 8.93487 114.228 3.58369 109.279C2.11321 107.907 1.17833 106.043 1.17833 103.347C1.17833 96.4805 7.2112 92.9524 14.8655 92.9524C19.7736 92.9524 25.6117 94.1787 29.1905 96.2859L26.4443 102.32C23.4985 100.802 18.6926 99.8188 15.1576 99.8188C11.1357 99.8188 9.56299 100.948 9.56299 102.661C9.56299 108.447 29.731 102.958 29.731 115.654C29.731 122.321 23.3524 126 14.325 126C9.12477 126 3.72489 124.822 0 122.37L3.19416 116.34Z" fill="black"/>
<path d="M33.0762 93.1958H41.2709V105.751H57.1687V93.1958H65.3634V125.513H57.1687V112.715H41.2709V125.513H33.0762V93.1958Z" fill="black"/>
<path d="M68.6062 109.474C68.6062 99.2251 76.2605 92.9475 86.958 92.9475C97.6555 92.9475 105.31 99.2251 105.31 109.474C105.31 119.722 97.6555 126 86.958 126C76.2605 126 68.6062 119.722 68.6062 109.474ZM96.9154 109.474C96.9154 103.98 93.6287 100.009 86.9531 100.009C80.2775 100.009 76.9909 103.98 76.9909 109.474C76.9909 114.968 80.2775 118.939 86.9531 118.939C93.6287 118.939 96.9154 114.968 96.9154 109.474Z" fill="black"/>
<path d="M113.553 93.1958L121.256 113.596H121.353L128.764 93.1958H135.975L144.121 113.596H144.219L151.284 93.1958H160.311L147.7 125.659H140.83L132.44 104.573H132.343L124.786 125.659H117.721L104.423 93.1958H113.553Z" fill="black"/>
<path d="M73.193 21.5872C74.5612 20.3998 75.4279 18.6576 75.4279 16.7062C75.4279 13.1343 72.5308 10.2437 68.9617 10.2437C65.7335 10.2437 63.0603 12.6136 62.5783 15.7037C62.8655 15.6599 63.1577 15.6307 63.4596 15.6307C66.8242 15.6307 69.5509 18.3559 69.5509 21.7185C69.5509 23.9327 68.3628 25.8696 66.5904 26.9304C70.1936 28.2979 72.7499 31.7773 72.7499 35.8553C72.7499 36.3177 72.7158 36.7654 72.6525 37.2082C71.7663 36.2057 70.476 35.5682 69.0348 35.5682C66.3665 35.5682 64.2046 37.7289 64.2046 40.3957C64.2046 42.2644 65.2709 43.8849 66.8242 44.6878C65.7043 45.1452 64.4821 45.4032 63.1966 45.4032C57.9185 45.4032 53.6434 41.1305 53.6434 35.8553C53.6434 35.2081 53.7164 34.5755 53.8382 33.9623C54.7243 35.0378 56.0634 35.7191 57.5679 35.7191C60.2362 35.7191 62.3981 33.5584 62.3981 30.8917C62.3981 29.1398 61.4632 27.6117 60.0658 26.765C58.4395 25.67 57.3683 23.8208 57.3683 21.7137C57.3683 20.8426 57.5533 20.0105 57.8844 19.261C50.8534 21.5044 45.7603 28.0838 45.7603 35.8553C45.7603 45.481 53.5655 53.2818 63.1966 53.2818C72.8278 53.2818 80.633 45.481 80.633 35.8553C80.633 29.9524 77.6921 24.7357 73.193 21.5872Z" fill="#D33D8D"/>
<path d="M8.07753 3.66437H2.21509V0H18.2492V3.66437H12.3916V17.008H8.07753V3.66437Z" fill="black"/>
<path d="M20.708 0H25.0221V6.60853H33.3872V0H37.7013V17.008H33.3872V10.2729H25.0172V17.008H20.7031V0H20.708Z" fill="black"/>
<path d="M40.5107 0H53.7305V3.66437H44.8199V6.60853H52.927V10.2729H44.8248V13.3436H53.8863V17.008H40.5107V0Z" fill="black"/>
</svg>
